<?xml version="1.0" encoding="utf-8"?>
<!-- Generator: Adobe Illustrator 27.8.1, SVG Export Plug-In . SVG Version: 6.00 Build 0)  -->
<svg version="1.1" id="Layer_1" xmlns="http://www.w3.org/2000/svg" xmlns:xlink="http://www.w3.org/1999/xlink" x="0px" y="0px"
	 viewBox="0 0 82 45" style="enable-background:new 0 0 82 45;" xml:space="preserve">
<style type="text/css">
	.st0{fill:#808080;stroke:#000000;stroke-miterlimit:10;}
	.st1{fill:#CCCCCC;stroke:#000000;stroke-miterlimit:10;}
	.st2{fill:#999999;stroke:#000000;stroke-miterlimit:10;}
	.st3{fill:none;stroke:#000000;stroke-miterlimit:10;}
	.st4{fill:#333333;stroke:#333333;stroke-miterlimit:10;}
</style>
<path class="st0" d="M79.39,11.48H61.04V4.68h18.35c1.14,0,2.07,0.92,2.07,2.07v2.66C81.46,10.55,80.53,11.48,79.39,11.48z"/>
<path class="st1" d="M19.31,22.44h6.1c2.41,0,4.36-1.95,4.36-4.36v-2.26H19.31V22.44z"/>
<path class="st2" d="M9.88,44.29L4.2,42.93c-0.96-0.23-1.56-1.2-1.33-2.16l6.81-28.41l11.86,2.84l-6.16,25.72
	C14.79,43.37,12.33,44.88,9.88,44.29z"/>
<path class="st0" d="M76.37,15.82H8.07c-3.9,0-7.06-3.16-7.06-7.06V2.84c0-1.2,0.97-2.18,2.18-2.18h73.17
	c1.78,0,3.22,1.44,3.22,3.22v8.71C79.59,14.37,78.15,15.82,76.37,15.82z"/>
<line class="st3" x1="24.54" y1="20.87" x2="23.44" y2="15.82"/>
<line class="st3" x1="9.19" y1="5.71" x2="8.09" y2="0.66"/>
<line class="st3" x1="15.83" y1="5.63" x2="14.74" y2="0.58"/>
<line class="st3" x1="12.55" y1="5.71" x2="11.45" y2="0.66"/>
<line class="st3" x1="66.28" y1="5.3" x2="65.19" y2="0.24"/>
<line class="st3" x1="63.34" y1="5.63" x2="62.24" y2="0.58"/>
<path class="st4" d="M49.22,6.24H30.07c-1.29,0-2.38-0.64-2.58-1.52l-0.67-3.01h24.42l0.55,2.48C52.03,5.26,50.81,6.24,49.22,6.24z"
	/>
</svg>
