<?xml version="1.0" encoding="UTF-8" standalone="no"?>
<!-- Created with Inkscape (http://www.inkscape.org/) -->

<svg
   width="200mm"
   height="200mm"
   viewBox="0 0 200 200"
   version="1.1"
   id="svg1"
   inkscape:version="1.3 (0e150ed6c4, 2023-07-21)"
   sodipodi:docname="playerimg.svg"
   xmlns:inkscape="http://www.inkscape.org/namespaces/inkscape"
   xmlns:sodipodi="http://sodipodi.sourceforge.net/DTD/sodipodi-0.dtd"
   xmlns="http://www.w3.org/2000/svg"
   xmlns:svg="http://www.w3.org/2000/svg">
  <sodipodi:namedview
     id="namedview1"
     pagecolor="#ffffff"
     bordercolor="#000000"
     borderopacity="0.25"
     inkscape:showpageshadow="2"
     inkscape:pageopacity="0.0"
     inkscape:pagecheckerboard="0"
     inkscape:deskcolor="#d1d1d1"
     inkscape:document-units="mm"
     showguides="false"
     inkscape:zoom="0.90599747"
     inkscape:cx="397.3521"
     inkscape:cy="561.25984"
     inkscape:window-width="2240"
     inkscape:window-height="1294"
     inkscape:window-x="-11"
     inkscape:window-y="-11"
     inkscape:window-maximized="1"
     inkscape:current-layer="layer1" />
  <defs
     id="defs1">
    <linearGradient
       id="swatch8"
       inkscape:swatch="solid">
      <stop
         style="stop-color:#4475ff;stop-opacity:1;"
         offset="0"
         id="stop8" />
    </linearGradient>
  </defs>
  <g
     inkscape:label="Layer 1"
     inkscape:groupmode="layer"
     id="layer1">
    <rect
       style="opacity:1;mix-blend-mode:normal;fill:#4475ff;fill-opacity:1;stroke-width:0.406668;stroke-dasharray:none;paint-order:markers stroke fill"
       id="rect1"
       width="200"
       height="200"
       x="0"
       y="-7.1054274e-15" />
    <path
       sodipodi:type="spiral"
       style="fill:none;fill-opacity:1;fill-rule:evenodd;stroke:#00abe2;stroke-width:13.8712436;stroke-linecap:round;stroke-linejoin:miter;stroke-dasharray:41.61372329,41.61372329;stroke-dashoffset:0;stroke-opacity:1"
       id="path8"
       sodipodi:cx="4.6989036"
       sodipodi:cy="173.99356"
       sodipodi:expansion="1"
       sodipodi:revolution="3"
       sodipodi:radius="131.25113"
       sodipodi:argument="-19.53227"
       sodipodi:t0="0"
       d="m 4.6989036,173.99356 c 5.1057392,-4.15179 8.1155184,4.83409 6.9005434,8.48608 -3.2925052,9.89665 -16.433485,10.18801 -23.872692,5.31501 -13.306997,-8.71667 -13.00875,-27.76043 -3.729483,-39.25931 13.6176978,-16.87508 39.247564,-15.93117 54.645929,-2.14395 20.523599,18.37619 18.898005,50.79242 0.558422,70.03254 -23.078495,24.21174 -62.365005,21.88804 -85.419166,-1.02711 -27.921679,-27.75331 -24.891534,-73.95324 2.61264,-100.80578 32.412718,-31.644794 85.551243,-27.9035 116.192402,4.19817 35.376431,37.06265 30.921111,97.15577 -5.783701,131.57902 C 25.097457,289.48212 -41.961065,284.3109 -80.161841,242.999 -123.01734,196.65329 -117.12893,122.6217 -71.207078,80.646742 -20.225114,34.046581 60.785166,40.653082 106.5318,91.187035"
       transform="matrix(1.1256508,0,0,1.0388385,98.290538,-75.989381)" />
  </g>
</svg>
